<svg width="1440" height="520" viewBox="0 0 1440 520" fill="none" xmlns="http://www.w3.org/2000/svg">
<g clipPath="url(#clip0_3703_59305)">
<rect width="1440" height="520" fill="#1B0757"/>
<g opacity="0.6">
<path d="M802.338 245.648C802.338 135.411 846.129 29.6896 924.078 -48.2596C1002.03 -126.209 1107.75 -170 1217.99 -170C1328.22 -170 1433.94 -126.209 1511.89 -48.2596C1589.84 29.6896 1633.63 135.411 1633.63 245.648" stroke="white" stroke-width="1.65989" style="mix-blend-mode:screen"/>
<path d="M848.705 245.647C848.705 141.559 890.054 41.7342 963.655 -31.8673C1037.26 -105.469 1137.08 -146.818 1241.17 -146.818C1345.26 -146.818 1445.08 -105.469 1518.68 -31.8673C1592.29 41.7342 1633.64 141.559 1633.64 245.647" stroke="white" stroke-width="1.65989" style="mix-blend-mode:screen"/>
<path d="M895.068 245.648C895.068 147.708 933.975 53.7798 1003.23 -15.4741C1072.48 -84.7279 1166.41 -123.634 1264.35 -123.634C1362.29 -123.634 1456.22 -84.7279 1525.47 -15.4741C1594.73 53.7798 1633.63 147.708 1633.63 245.648" stroke="white" stroke-width="1.65989" style="mix-blend-mode:screen"/>
<path d="M941.438 245.648C941.438 153.856 977.901 65.8247 1042.81 0.918476C1107.71 -63.9877 1195.75 -100.452 1287.54 -100.452C1379.33 -100.452 1467.36 -63.9877 1532.27 0.918476C1597.17 65.8247 1633.64 153.856 1633.64 245.648" stroke="white" stroke-width="1.65989" style="mix-blend-mode:screen"/>
<path d="M987.799 245.648C987.799 150.205 1025.71 58.6708 1093.2 -8.81752C1160.69 -76.3059 1252.22 -114.22 1347.67 -114.22C1443.11 -114.22 1534.64 -76.3059 1602.13 -8.81752C1669.62 58.6708 1707.54 150.205 1707.54 245.648" stroke="white" stroke-width="1.65989" style="mix-blend-mode:screen"/>
<path d="M1034.17 245.648C1034.17 156.354 1069.64 70.7165 1132.78 7.57572C1195.92 -55.565 1281.56 -91.0371 1370.85 -91.0371C1460.15 -91.0371 1545.78 -55.565 1608.92 7.57572C1672.06 70.7165 1707.54 156.354 1707.54 245.648" stroke="white" stroke-width="1.65989" style="mix-blend-mode:screen"/>
<path d="M1080.53 245.648C1080.53 162.502 1113.56 82.7616 1172.35 23.9685C1231.15 -34.8246 1310.89 -67.8542 1394.03 -67.8542C1477.18 -67.8542 1556.92 -34.8246 1615.71 23.9685C1674.5 82.7616 1707.53 162.502 1707.53 245.648" stroke="white" stroke-width="1.65989" style="mix-blend-mode:screen"/>
<path d="M1126.9 245.648C1126.9 168.651 1157.49 94.8067 1211.93 40.3612C1266.38 -14.0842 1340.22 -44.6714 1417.22 -44.6714C1494.22 -44.6714 1568.06 -14.0842 1622.5 40.3612C1676.95 94.8067 1707.54 168.651 1707.54 245.648" stroke="white" stroke-width="1.65989" style="mix-blend-mode:screen"/>
<path d="M1173.26 245.648C1173.26 174.799 1201.41 106.852 1251.5 56.7537C1301.6 6.6559 1369.55 -21.4888 1440.4 -21.4888C1511.25 -21.4888 1579.19 6.6559 1629.29 56.7537C1679.39 106.852 1707.54 174.799 1707.54 245.648" stroke="white" stroke-width="1.65989" style="mix-blend-mode:screen"/>
<path d="M1219.63 245.648C1219.63 180.947 1245.33 118.897 1291.08 73.1465C1336.83 27.3963 1398.88 1.69409 1463.58 1.69409C1528.29 1.69409 1590.34 27.3963 1636.09 73.1465C1681.84 118.897 1707.54 180.947 1707.54 245.648" stroke="white" stroke-width="1.65989" style="mix-blend-mode:screen"/>
<path d="M1266 245.648C1266 187.096 1289.26 130.942 1330.66 89.539C1372.06 48.1364 1428.21 24.8767 1486.77 24.8767C1545.32 24.8767 1601.47 48.1364 1642.88 89.539C1684.28 130.942 1707.54 187.096 1707.54 245.648" stroke="white" stroke-width="1.65989" style="mix-blend-mode:screen"/>
<path d="M1312.36 245.647C1312.36 193.244 1333.18 142.987 1370.23 105.932C1407.29 68.8766 1457.54 48.0593 1509.95 48.0593C1562.35 48.0593 1612.61 68.8766 1649.66 105.932C1686.72 142.987 1707.54 193.244 1707.54 245.647" stroke="white" stroke-width="1.65989" style="mix-blend-mode:screen"/>
<path d="M1358.73 245.648C1358.73 204.113 1375.23 164.278 1404.6 134.908C1433.97 105.538 1473.8 89.0381 1515.34 89.0381C1556.87 89.0381 1596.71 105.538 1626.08 134.908C1655.45 164.278 1671.95 204.113 1671.95 245.648" stroke="white" stroke-width="1.65989" style="mix-blend-mode:screen"/>
<path d="M1405.09 245.648C1405.09 210.261 1419.15 176.323 1444.17 151.301C1469.19 126.278 1503.13 112.221 1538.52 112.221C1573.91 112.221 1607.84 126.278 1632.87 151.301C1657.89 176.323 1671.95 210.261 1671.95 245.648" stroke="white" stroke-width="1.65989" style="mix-blend-mode:screen"/>
</g>
<path d="M802.335 256.473C808.314 256.473 813.16 251.626 813.16 245.648C813.16 239.669 808.314 234.823 802.335 234.823C796.357 234.823 791.51 239.669 791.51 245.648C791.51 251.626 796.357 256.473 802.335 256.473Z" fill="#C5B9AC" stroke="#C5B9AC" stroke-width="4.97966"/>
<path d="M848.702 256.473C854.681 256.473 859.527 251.626 859.527 245.647C859.527 239.669 854.681 234.822 848.702 234.822C842.724 234.822 837.877 239.669 837.877 245.647C837.877 251.626 842.724 256.473 848.702 256.473Z" fill="#D10077" stroke="#D10077" stroke-width="4.97966"/>
<path d="M895.064 256.473C901.042 256.473 905.889 251.626 905.889 245.647C905.889 239.669 901.042 234.822 895.064 234.822C889.085 234.822 884.239 239.669 884.239 245.647C884.239 251.626 889.085 256.473 895.064 256.473Z" fill="white" stroke="white" stroke-width="4.97966"/>
<path d="M941.433 256.473C947.411 256.473 952.258 251.626 952.258 245.647C952.258 239.669 947.411 234.822 941.433 234.822C935.454 234.822 930.608 239.669 930.608 245.647C930.608 251.626 935.454 256.473 941.433 256.473Z" fill="#D10077" stroke="#D10077" stroke-width="4.97966"/>
<path d="M987.796 256.473C993.775 256.473 998.621 251.626 998.621 245.648C998.621 239.669 993.775 234.823 987.796 234.823C981.818 234.823 976.971 239.669 976.971 245.648C976.971 251.626 981.818 256.473 987.796 256.473Z" fill="#C5B9AC" stroke="#C5B9AC" stroke-width="4.97966"/>
<path d="M1034.17 256.473C1040.14 256.473 1044.99 251.626 1044.99 245.648C1044.99 239.669 1040.14 234.823 1034.17 234.823C1028.19 234.823 1023.34 239.669 1023.34 245.648C1023.34 251.626 1028.19 256.473 1034.17 256.473Z" fill="white" stroke="white" stroke-width="4.97966"/>
<path d="M1080.53 256.473C1086.51 256.473 1091.35 251.626 1091.35 245.647C1091.35 239.669 1086.51 234.822 1080.53 234.822C1074.55 234.822 1069.7 239.669 1069.7 245.647C1069.7 251.626 1074.55 256.473 1080.53 256.473Z" fill="#D10077" stroke="#D10077" stroke-width="4.97966"/>
<path d="M1126.89 256.473C1132.87 256.473 1137.72 251.626 1137.72 245.647C1137.72 239.669 1132.87 234.822 1126.89 234.822C1120.92 234.822 1116.07 239.669 1116.07 245.647C1116.07 251.626 1120.92 256.473 1126.89 256.473Z" fill="#C5B9AC" stroke="#C5B9AC" stroke-width="4.97966"/>
<path d="M1173.26 256.473C1179.24 256.473 1184.08 251.626 1184.08 245.647C1184.08 239.669 1179.24 234.822 1173.26 234.822C1167.28 234.822 1162.43 239.669 1162.43 245.647C1162.43 251.626 1167.28 256.473 1173.26 256.473Z" fill="white" stroke="white" stroke-width="4.97966"/>
<path d="M1219.63 256.473C1225.61 256.473 1230.45 251.626 1230.45 245.647C1230.45 239.669 1225.61 234.822 1219.63 234.822C1213.65 234.822 1208.8 239.669 1208.8 245.647C1208.8 251.626 1213.65 256.473 1219.63 256.473Z" fill="#D10077" stroke="#D10077" stroke-width="4.97966"/>
<path d="M1265.99 256.473C1271.97 256.473 1276.82 251.626 1276.82 245.647C1276.82 239.669 1271.97 234.822 1265.99 234.822C1260.01 234.822 1255.17 239.669 1255.17 245.647C1255.17 251.626 1260.01 256.473 1265.99 256.473Z" fill="#C5B9AC" stroke="#C5B9AC" stroke-width="4.97966"/>
<path d="M1312.35 256.473C1318.33 256.473 1323.18 251.626 1323.18 245.647C1323.18 239.669 1318.33 234.822 1312.35 234.822C1306.38 234.822 1301.53 239.669 1301.53 245.647C1301.53 251.626 1306.38 256.473 1312.35 256.473Z" fill="white" stroke="white" stroke-width="4.97966"/>
<path d="M1358.72 256.473C1364.7 256.473 1369.55 251.626 1369.55 245.647C1369.55 239.669 1364.7 234.822 1358.72 234.822C1352.75 234.822 1347.9 239.669 1347.9 245.647C1347.9 251.626 1352.75 256.473 1358.72 256.473Z" fill="#D10077" stroke="#D10077" stroke-width="4.97966"/>
<path d="M1405.09 256.473C1411.07 256.473 1415.91 251.626 1415.91 245.647C1415.91 239.669 1411.07 234.822 1405.09 234.822C1399.11 234.822 1394.26 239.669 1394.26 245.647C1394.26 251.626 1399.11 256.473 1405.09 256.473Z" fill="#C5B9AC" stroke="#C5B9AC" stroke-width="4.97966"/>
<path d="M1451.46 255.643C1456.98 255.643 1461.45 251.168 1461.45 245.648C1461.45 240.128 1456.98 235.653 1451.46 235.653C1445.94 235.653 1441.46 240.128 1441.46 245.648C1441.46 251.168 1445.94 255.643 1451.46 255.643Z" fill="white" stroke="white" stroke-width="3.31978"/>
<g opacity="0.6">
<path d="M1704.66 307.661C1704.66 417.898 1660.87 523.62 1582.92 601.569C1504.97 679.518 1399.25 723.309 1289.01 723.309C1178.78 723.309 1073.06 679.518 995.107 601.569C917.158 523.619 873.366 417.898 873.366 307.661" stroke="white" stroke-width="1.65989" style="mix-blend-mode:screen"/>
<path d="M1658.29 307.661C1658.29 411.75 1616.95 511.575 1543.34 585.176C1469.74 658.778 1369.92 700.126 1265.83 700.126C1161.74 700.126 1061.92 658.778 988.315 585.176C914.714 511.575 873.365 411.75 873.365 307.661" stroke="white" stroke-width="1.65989" style="mix-blend-mode:screen"/>
<path d="M1611.93 307.661C1611.93 405.601 1573.03 499.529 1503.77 568.783C1434.52 638.037 1340.59 676.943 1242.65 676.943C1144.71 676.943 1050.78 638.037 981.528 568.783C912.274 499.529 873.367 405.601 873.367 307.661" stroke="white" stroke-width="1.65989" style="mix-blend-mode:screen"/>
<path d="M1565.56 307.662C1565.56 399.453 1529.1 487.485 1464.19 552.391C1399.29 617.297 1311.25 653.761 1219.46 653.761C1127.67 653.761 1039.64 617.297 974.734 552.391C909.828 487.485 873.364 399.453 873.364 307.662" stroke="white" stroke-width="1.65989" style="mix-blend-mode:screen"/>
<path d="M1519.2 307.661C1519.2 403.104 1481.29 494.638 1413.8 562.127C1346.31 629.615 1254.78 667.53 1159.33 667.53C1063.89 667.53 972.356 629.615 904.868 562.127C837.379 494.638 799.465 403.104 799.465 307.661" stroke="white" stroke-width="1.65989" style="mix-blend-mode:screen"/>
<path d="M1472.83 307.661C1472.83 396.955 1437.36 482.593 1374.22 545.733C1311.08 608.874 1225.44 644.346 1136.15 644.346C1046.85 644.346 961.217 608.874 898.076 545.733C834.936 482.593 799.463 396.955 799.463 307.661" stroke="white" stroke-width="1.65989" style="mix-blend-mode:screen"/>
<path d="M1426.47 307.661C1426.47 390.807 1393.44 470.547 1334.65 529.341C1275.85 588.134 1196.11 621.163 1112.97 621.163C1029.82 621.163 950.082 588.134 891.289 529.341C832.496 470.547 799.466 390.807 799.466 307.661" stroke="white" stroke-width="1.65989" style="mix-blend-mode:screen"/>
<path d="M1380.1 307.661C1380.1 384.658 1349.51 458.502 1295.07 512.948C1240.62 567.393 1166.78 597.98 1089.78 597.98C1012.78 597.98 938.941 567.393 884.495 512.948C830.05 458.502 799.463 384.658 799.463 307.661" stroke="white" stroke-width="1.65989" style="mix-blend-mode:screen"/>
<path d="M1333.74 307.661C1333.74 378.51 1305.59 446.457 1255.5 496.555C1205.4 546.653 1137.45 574.798 1066.6 574.798C995.753 574.798 927.805 546.653 877.707 496.555C827.61 446.457 799.465 378.51 799.465 307.661" stroke="white" stroke-width="1.65989" style="mix-blend-mode:screen"/>
<path d="M1287.37 307.661C1287.37 372.362 1261.67 434.412 1215.92 480.163C1170.17 525.913 1108.12 551.615 1043.42 551.615C978.715 551.615 916.664 525.913 870.914 480.163C825.164 434.412 799.461 372.362 799.461 307.661" stroke="white" stroke-width="1.65989" style="mix-blend-mode:screen"/>
<path d="M1241 307.661C1241 366.213 1217.74 422.367 1176.34 463.77C1134.94 505.172 1078.79 528.432 1020.23 528.432C961.681 528.432 905.527 505.172 864.124 463.77C822.722 422.367 799.462 366.213 799.462 307.661" stroke="white" stroke-width="1.65989" style="mix-blend-mode:screen"/>
<path d="M1194.64 307.662C1194.64 360.065 1173.82 410.323 1136.77 447.378C1099.71 484.432 1049.46 505.25 997.053 505.25C944.649 505.25 894.392 484.432 857.337 447.378C820.282 410.323 799.464 360.065 799.464 307.662" stroke="white" stroke-width="1.65989" style="mix-blend-mode:screen"/>
<path d="M1148.27 307.661C1148.27 349.196 1131.77 389.031 1102.4 418.401C1073.03 447.771 1033.2 464.271 991.663 464.271C950.128 464.271 910.293 447.771 880.923 418.401C851.553 389.031 835.053 349.196 835.053 307.661" stroke="white" stroke-width="1.65989" style="mix-blend-mode:screen"/>
<path d="M1101.91 307.661C1101.91 343.048 1087.85 376.986 1062.83 402.008C1037.81 427.031 1003.87 441.088 968.481 441.088C933.094 441.088 899.156 427.031 874.134 402.008C849.111 376.986 835.054 343.048 835.054 307.661" stroke="white" stroke-width="1.65989" style="mix-blend-mode:screen"/>
<path d="M1055.54 307.661C1055.54 336.9 1043.93 364.941 1023.25 385.616C1002.58 406.291 974.535 417.906 945.297 417.906C916.058 417.906 888.017 406.29 867.342 385.616C846.667 364.941 835.052 336.9 835.052 307.661" stroke="white" stroke-width="1.65989" style="mix-blend-mode:screen"/>
<path d="M1009.18 307.661C1009.18 330.751 1000.01 352.896 983.68 369.223C967.353 385.55 945.208 394.723 922.118 394.723C899.028 394.723 876.884 385.55 860.556 369.223C844.229 352.896 835.057 330.751 835.057 307.661" stroke="white" stroke-width="1.65989" style="mix-blend-mode:screen"/>
<path d="M962.811 307.661C962.811 324.603 956.081 340.851 944.101 352.83C932.121 364.81 915.874 371.54 898.932 371.54C881.99 371.54 865.742 364.81 853.763 352.83C841.783 340.851 835.053 324.603 835.053 307.661" stroke="white" stroke-width="1.65989" style="mix-blend-mode:screen"/>
<path d="M916.441 307.662C916.441 318.455 912.154 328.806 904.522 336.438C896.89 344.07 886.539 348.357 875.746 348.357C864.952 348.357 854.601 344.07 846.969 336.438C839.337 328.806 835.05 318.455 835.05 307.662" stroke="white" stroke-width="1.65989"/>
</g>
<path d="M1426.47 296.837C1420.49 296.837 1415.65 301.683 1415.65 307.662C1415.65 313.64 1420.49 318.487 1426.47 318.487C1432.45 318.487 1437.3 313.64 1437.3 307.662C1437.3 301.683 1432.45 296.837 1426.47 296.837Z" fill="#D10077" stroke="#D10077" stroke-width="4.97966"/>
<path d="M1380.11 296.837C1374.13 296.837 1369.28 301.683 1369.28 307.662C1369.28 313.64 1374.13 318.487 1380.11 318.487C1386.08 318.487 1390.93 313.64 1390.93 307.662C1390.93 301.683 1386.08 296.837 1380.11 296.837Z" fill="#C5B9AC" stroke="#C5B9AC" stroke-width="4.97966"/>
<path d="M1333.74 296.837C1327.76 296.837 1322.92 301.683 1322.92 307.662C1322.92 313.64 1327.76 318.487 1333.74 318.487C1339.72 318.487 1344.57 313.64 1344.57 307.662C1344.57 301.683 1339.72 296.837 1333.74 296.837Z" fill="white" stroke="white" stroke-width="4.97966"/>
<path d="M1287.37 296.836C1281.4 296.836 1276.55 301.683 1276.55 307.661C1276.55 313.64 1281.4 318.486 1287.37 318.486C1293.35 318.486 1298.2 313.64 1298.2 307.661C1298.2 301.683 1293.35 296.836 1287.37 296.836Z" fill="#D10077" stroke="#D10077" stroke-width="4.97966"/>
<path d="M1241.01 296.836C1235.03 296.836 1230.18 301.683 1230.18 307.661C1230.18 313.64 1235.03 318.486 1241.01 318.486C1246.99 318.486 1251.83 313.64 1251.83 307.661C1251.83 301.683 1246.99 296.836 1241.01 296.836Z" fill="#C5B9AC" stroke="#C5B9AC" stroke-width="4.97966"/>
<path d="M1194.65 296.836C1188.67 296.836 1183.82 301.683 1183.82 307.661C1183.82 313.64 1188.67 318.486 1194.65 318.486C1200.62 318.486 1205.47 313.64 1205.47 307.661C1205.47 301.683 1200.62 296.836 1194.65 296.836Z" fill="white" stroke="white" stroke-width="4.97966"/>
<path d="M1148.28 296.836C1142.3 296.836 1137.45 301.683 1137.45 307.661C1137.45 313.64 1142.3 318.486 1148.28 318.486C1154.25 318.486 1159.1 313.64 1159.1 307.661C1159.1 301.683 1154.25 296.836 1148.28 296.836Z" fill="#D10077" stroke="#D10077" stroke-width="4.97966"/>
<path d="M1101.91 296.836C1095.93 296.836 1091.09 301.683 1091.09 307.661C1091.09 313.64 1095.93 318.486 1101.91 318.486C1107.89 318.486 1112.74 313.64 1112.74 307.661C1112.74 301.683 1107.89 296.836 1101.91 296.836Z" fill="#C5B9AC" stroke="#C5B9AC" stroke-width="4.97966"/>
<path d="M1055.54 297.666C1050.02 297.666 1045.55 302.141 1045.55 307.661C1045.55 313.181 1050.02 317.656 1055.54 317.656C1061.06 317.656 1065.54 313.181 1065.54 307.661C1065.54 302.141 1061.06 297.666 1055.54 297.666Z" fill="white" stroke="white" stroke-width="3.31978"/>
<path d="M1009.18 297.666C1003.66 297.666 999.185 302.141 999.185 307.661C999.185 313.181 1003.66 317.656 1009.18 317.656C1014.7 317.656 1019.18 313.181 1019.18 307.661C1019.18 302.141 1014.7 297.666 1009.18 297.666Z" fill="#D10077" stroke="#D10077" stroke-width="3.31978"/>
<path d="M962.815 298.496C957.753 298.496 953.65 302.599 953.65 307.661C953.65 312.723 957.753 316.826 962.815 316.826C967.877 316.826 971.98 312.723 971.98 307.661C971.98 302.599 967.877 298.496 962.815 298.496Z" fill="#C5B9AC" stroke="#C5B9AC" stroke-width="1.65989"/>
<path d="M916.446 298.496C911.384 298.496 907.281 302.599 907.281 307.661C907.281 312.723 911.384 316.826 916.446 316.826C921.508 316.826 925.611 312.723 925.611 307.661C925.611 302.599 921.508 298.496 916.446 298.496Z" fill="white" stroke="white" stroke-width="1.65989"/>
<path d="M873.37 302.199C870.353 302.199 867.907 304.645 867.907 307.662C867.907 310.679 870.353 313.124 873.37 313.124C876.387 313.124 878.833 310.679 878.833 307.662C878.833 304.645 876.387 302.199 873.37 302.199Z" fill="#D10077" stroke="#D10077" stroke-width="0.829944"/>
<path d="M835.051 303.676C832.85 303.676 831.066 305.461 831.066 307.662C831.066 309.863 832.85 311.647 835.051 311.647C837.252 311.647 839.036 309.863 839.036 307.662C839.036 305.461 837.252 303.676 835.051 303.676Z" fill="#C5B9AC" stroke="#C5B9AC" stroke-width="0.829944"/>
<path d="M799.467 304.921C797.954 304.921 796.727 306.148 796.727 307.661C796.727 309.174 797.954 310.4 799.467 310.4C800.979 310.4 802.206 309.174 802.206 307.661C802.206 306.148 800.979 304.921 799.467 304.921Z" fill="white" stroke="white" stroke-width="0.829944"/>
</g>
<defs>
<clipPath id="clip0_3703_59305">
<rect width="1440" height="520" fill="white"/>
</clipPath>
</defs>
</svg>
